<svg version="1" xmlns="http://www.w3.org/2000/svg" width="160" height="160" viewBox="0 0 120.000000 120.000000"><path d="M41.2 17.3l-1.9 3.3 2.9-.4c1.5-.2 3.1-.9 3.5-1.5.4-.6-.2-.8-1.5-.5-2.6.7-2.8.1-.5-2.4.9-1 1.1-1.8.6-1.8-.6 0-2 1.5-3.1 3.3zM53 15.5c-.7.9-1 1.8-.7 2.1.3.3 1-.4 1.7-1.5 1.3-2.5.8-2.7-1-.6z"/><path d="M54.5 17c-1 1.1-2.1 1.7-2.6 1.5-.4-.3-1-.1-1.3.4-.4.5 1.4.9 3.9.9s4.5-.4 4.5-.9-.7-.9-1.6-.9c-1 0-1.4-.6-1-1.5.7-2 .3-1.9-1.9.5zM65 17.1c-1.3.7-1.3.9 0 .9 1.1 0 1.2.2.3.8-.7.4 1 .7 3.7.6 4.7-.1 5 0 4.5 2-.6 1.9-.5 1.9 1.3-.3 2.6-3.2 4.8-1.9 2.6 1.5-2.4 3.6-.9 2.9 3.7-1.7 2.2-2.2 3.1-3.5 2-2.9-1.2.6-2.5.9-2.9.6-.5-.3-3.5-.8-6.8-1.1-3.2-.4-6.1-.8-6.4-1-.3-.2-1.2 0-2 .6zM86 18.2c0 1.8 1.1 2.4 2.4 1.1.3-.4 2.9-.6 5.6-.4 4.1.2 5 0 5-1.4s-.3-1.5-1.3-.6c-.8.6-1.6.8-2 .5-.3-.3-2.6-.7-5.1-.8-3.8-.2-4.6.1-4.6 1.6zM22.3 18.8c.9.2 1.7.7 1.7 1.1 0 .4 1.6.7 3.5.7 2.1-.1 3.5-.6 3.5-1.3 0-.9-1.7-1.2-5.2-1.1-2.9.1-4.5.3-3.5.6zM33.6 19.5c-.3.8-.1 1.5.4 1.5.6 0 1-.7 1-1.5s-.2-1.5-.4-1.5-.6.7-1 1.5zM20.8 27.7c.6.2 1.8.2 2.5 0 .6-.3.1-.5-1.3-.5-1.4 0-1.9.2-1.2.5zM46.6 29.1c-1.3 1.9-2.5 2.3-7.2 2.3-3.2.1-5.9.6-6.1 1.2-.2.7.8.9 2.7.6 1.6-.2 4.1-.1 5.5.2 2.2.6 2.4.9 1.5 2.6-.7 1.4-.7 2 0 2 .5 0 1-.4 1-.9 0-2.1 3.1-3.9 6-3.6 1.6.2 3 0 3-.5 0-.6-.5-1-1-1-.6 0-.3-1.2.6-2.8l1.6-2.7-2.5 2.7c-1.4 1.6-3.4 2.8-4.3 2.8-1.6 0-1.6-.2.1-2 1-1.1 1.6-2.3 1.3-2.6-.3-.3-1.3.5-2.2 1.7zM64 27.8c-.8.4-1.6 1.8-1.7 3.2l-.3 2.5 1.6-2.8c.8-1.5 1.9-2.7 2.4-2.7 1.5 0 1.2 1.6-.5 3-2.3 1.9-1.8 2.7 1.5 2.8 2 0 3-.4 3-1.4 0-.9-.5-1.2-1.2-.8-.7.5-.9 0-.6-1.4.4-1.3 0-2.3-.9-2.6-.8-.3-1.5-.6-1.6-.5-.1 0-.9.3-1.7.7zM83.6 29.3c-1.3 1.9-2.3 2.3-5 2-2.1-.2-3.6.2-3.9 1-.4 1 1.8 1.3 9.7 1.3 5.5.1 9.4-.1 8.4-.3-2.2-.5-3.1-3.2-1.7-4.9.7-.9.7-1.4.1-1.4-.5 0-1.7 1.1-2.6 2.5-1 1.5-2.2 2.2-3.1 1.9-1.2-.5-1.3-.9-.4-2 .7-.8.9-1.7.6-2-.3-.3-1.3.5-2.1 1.9zM20.1 31.7c-1 2.6-1 2.7.4.9.8-1.1 1.5-2.3 1.5-2.8 0-1.5-.7-.8-1.9 1.9zM23 30.9c-1.4 2.7-1.4 2.8 2.3 2.9 2.4.1 3.4-.3 3.4-1.3 0-.9-.7-1.4-1.6-1.3-.9.2-1.5-.3-1.3-1 .3-1.9-1.6-1.4-2.8.7zM94.8 38.7c-2.4 2.1-4.5 4.1-4.8 4.4-.3.3-1.3.8-2.3 1.2-1.5.6-1.7.3-1.1-1.6.6-2.2.6-2.2-2.1.3-1.4 1.4-3 2.4-3.3 2.2-.4-.2-.8.1-1 .7-.2.5 1 1.1 2.7 1.3l2.9.3-3.6 3.7C79.5 54 78.1 54.7 77 54c-1.2-.7-1.2-1.2-.2-2.2 1.8-1.8 1.5-2.5-1-2.3-2.1.2-8.2 5.4-7.3 6.3.3.3 2.4.5 4.7.4l4.3-.2-7.9 7.9c-4.4 4.4-8.3 7.8-8.8 7.5-.4-.3-1.8.6-3 2.1-1.7 1.8-3.4 2.6-6.1 2.7-4.2.1-4.6 2.3-.4 2.3 1.5-.1 2.7.3 2.7.7 0 1.3-5.9 5.2-8.1 5.3-1.2.1-2.7.9-3.4 1.8-.8 1.1-2.9 1.7-5.9 1.8-5.2.2-6.4-.4-4.7-2.5.9-1.1.7-1.4-1.4-1.4-1.5.1-3.3 1.1-4.5 2.6-1.1 1.3-2 2.1-2 1.7 0-.4-.8-.1-1.7.6-1.7 1.3-1.7 1.2 0-1.4 1-1.5 1.3-2.7.7-2.7-.6 0-1.3.7-1.6 1.5-.4.8-.9 1.3-1.3 1.1-1.3-.8-3.4 1.2-2.8 2.7.4 1 1.4 1.3 3.2.9 2.4-.4 2.6-.2 2.1 1.5s-.2 2 1.8 2c1.6 0 2.8-.7 3.1-1.8.4-1.1 1.4-1.9 2.3-1.9 15.1-.5 17-.4 16.2.5-1.3 1.2-1.3 3.5-.1 3.5.8 0 2.3-4.4 2.5-7.2.1-.4.6-1.2 1.2-1.8.9-.9 1-.5.7 1.4-.4 2.1-.2 2.6 1.6 2.6 2.3 0 2.9-1.5.9-2.3-.8-.3 5.9-7.7 15.7-17.5l17-17.1 4.9 4.5 4.9 4.5-16.4 16.5C67.1 90.4 61.9 95 60.2 95c-1.8 0-2.2.4-1.8 1.8.4 1.3-.7 2.8-4.4 5.5-6.6 5-7.3 5.1-9.5 2.7-1.8-2-1.8-2.2-.2-4.9 2.5-4.2 2.1-4.8-1.2-1.7-1.5 1.5-3.4 2.6-4 2.4-1.5-.4-3.8 2.8-2.8 3.8.3.4 1.4.1 2.3-.7 1.6-1.3 1.6-1.2.6.8-1.5 2.8-1.5 3.6.1 3 1-.4 1.2.3.9 2.4-.3 2.2 0 2.9 1.2 2.9.9 0 1.3.6 1 1.5-1.2 3 2.8 2.6 15.3-1.6l12.8-4.2 9.1-8.9c6.5-6.3 10-9 12-9.2 1.5-.2 3-.9 3.2-1.7.3-.8 1.1-2.2 2-3.2.8-.9 1.2-2 .8-2.4-.3-.4 2.2-3.6 5.8-7.2 5.4-5.5 6.5-7.3 7-10.9.3-2.7 1.7-5.7 3.6-8 1.7-2.1 3-4.8 3-6.4 0-5.3-10.4-15.8-15.6-15.8-1.3 0-4.3 1.7-6.6 3.7zm-.8 4.8c1.1 1.3 1 1.4-.5.9-1.5-.6-1.6-.5-.3 1.6 1 1.8 1 2.4 0 2.7-.6.3-1 .8-.7 1.3.8 1.2-5.5 2.4-6.7 1.2-.7-.7.3-2.3 2.9-5 2.1-2.2 3.9-4.1 3.9-4.1.1-.1.7.6 1.4 1.4zm11.6.7c.9 3-2.3 5.5-4.4 3.4-1.9-1.8-.6-5.6 1.8-5.6 1 0 2.2 1 2.6 2.2zm-7.5 8.5c1.3 1.6 1.2 1.7-.3.4-1-.7-1.8-1.5-1.8-1.7 0-.8.8-.3 2.1 1.3zM74 53c0 .5-.5 1-1.1 1-.5 0-.7-.5-.4-1 .3-.6.8-1 1.1-1 .2 0 .4.4.4 1zm23.1 1.7c1.3 1.6 1.2 1.7-.3.4-1-.7-1.8-1.5-1.8-1.7 0-.8.8-.3 2.1 1.3zM65.1 41.6c-1.9 2.4-2.7 2.6-9.6 2.7-4.1 0-7.8-.3-8.2-.6-.3-.4 0-1.5.7-2.4.7-1 .1-.6-1.2.9-2.1 2.2-3.4 2.6-7.8 2.6l-5.3.1 2.2-2c2.4-2.3 2.7-3.1.8-2.3-.8.3-2.3 1.7-3.4 3.2l-2 2.7 7.1-.1c3.9 0 7.6-.2 8.1-.3.6-.2 2.8-.3 5-.2h17.8c.6 0 2.1.1 3.2.3 1.2.2 2-.3 2-1.2 0-1.1-1.1-1.5-4.2-1.4-4.7.1-4.7.1-3.3-2.7 1.5-2.7.5-2.4-1.9.7zM82 40.5c-1.9.7-2.7 1.4-1.8 1.4.9.1 1.8.5 2 1 .2.5 1.1-.2 2.1-1.5s1.7-2.4 1.5-2.3c-.2 0-1.9.7-3.8 1.4zM19.8 40.7c.6.2 1.8.2 2.5 0 .6-.3.1-.5-1.3-.5-1.4 0-1.9.2-1.2.5z"/><path d="M50.6 41.6c-1.1.7-1.8 1.6-1.5 1.8.2.2 1.3-.2 2.3-1 1.1-.7 1.8-1.6 1.5-1.8-.2-.2-1.3.2-2.3 1zM23.4 43.1c-1.5 1.7-1.6 2.2-.4 2.9.8.5 2.2.4 3.4-.3 1.9-1 2-1.1.3-1.5-1.1-.2-1.6-.9-1.3-1.8.7-1.9.2-1.8-2 .7zM19.5 44.1c-.4.6-.5 1.2-.2 1.5.2.3.7-.2 1-1.1.7-1.7.1-2-.8-.4zM36.4 52.1c-1.7 1.9-2.7 2.1-9.6 1.6-5.4-.4-8-.2-8.7.7-.8.9 1 1.3 8.2 1.4 8.8.1 9.3 0 11-2.4 2.4-3.2 1.7-4.1-.9-1.3zM42.9 54.2c-1 .4-1.9 1.4-1.9 2.1 0 .8-.7 2-1.5 2.7-.8.7-1.5 1.8-1.5 2.4.1.6 1.1-.1 2.3-1.5 1.2-1.5 3.4-2.9 4.9-3.1 2.5-.5 2.7-.3 2.2 2.1l-.5 2.6 1.7-2.3c.9-1.2 2.7-2.2 4-2.2 2.5 0 2.9-.7 1.6-2.5-.8-1.2-8.4-1.3-11.3-.3zM59.2 55.4c-1.6 1.8-1.6 1.9.8 1.3 1.4-.4 3.3-.7 4.3-.7.9 0 1.7-.7 1.7-1.5 0-2.1-4.7-1.5-6.8.9zM19.3 63C18 64.5 17 66 17 66.3c0 .8 14.7.3 15.5-.5.4-.4-.4-1-1.9-1.4-2.9-.7-3.2-1.4-1.4-3.2.7-.7.8-1.2.2-1.2-.6 0-1.9.9-2.8 1.9-1 1-2.6 2.1-3.8 2.4-1.7.5-1.9.2-1.4-1.9.8-3 .6-3-2.1.6zM20.5 72.5c-1.6.7-2.4 1.4-1.6 1.4.7.1 1.1.7.8 1.3-2 5-2.1 4.8 2.1 4.8 2.7 0 4.2-.5 4.6-1.6.4-1.2.2-1.5-.9-1.1-.8.4-1.7.2-2.1-.4-.4-.6-1.1-.5-2.1.3-1.4 1.1-1.4.9 0-1.9.9-1.7 2.2-3.3 2.9-3.6.7-.3.9-.6.3-.6-.5 0-2.3.6-4 1.4z"/><path d="M23 75.1c0 .5.5.7 1 .4.6-.3 1-.8 1-1.1 0-.2-.4-.4-1-.4-.5 0-1 .5-1 1.1zM32.5 77c-5.4.9-3.2 2.4 3.8 2.6 6.9.1 8.4-.3 6.3-2.1-1.2-1.1-5.5-1.3-10.1-.5zM20.2 99.3c-2 2.1-4.2 6.7-4.2 8.8 0 1.8 1.7.8 2.9-1.7 1.1-2.5 1.5-2.6 7.2-2.2 4.5.3 5.9.1 5.5-.8-.3-.7.4-2.4 1.5-3.8 2.4-3 1.1-3.5-1.5-.7-1.1 1.2-3.4 2-6.1 2.3-3.9.3-4.2.1-3.3-1.5 1.4-2.8.4-3-2-.4z"/></svg>
